<svg width="26" height="26" viewBox="0 0 26 26" fill="none" xmlns="http://www.w3.org/2000/svg">
<path d="M23.5148 5.73299L20.2659 2.48407C20.1655 2.38328 20.0461 2.30334 19.9147 2.24887C19.7832 2.19439 19.6423 2.16645 19.5 2.16666H6.5C6.35771 2.16645 6.21679 2.19439 6.08534 2.24887C5.95389 2.30334 5.83451 2.38328 5.73408 2.48407L2.48517 5.73299C2.38395 5.83339 2.30367 5.95289 2.249 6.08455C2.19433 6.21621 2.16634 6.35743 2.16667 6.49999V20.5833C2.16667 21.7782 3.13842 22.75 4.33333 22.75H21.6667C22.8616 22.75 23.8333 21.7782 23.8333 20.5833V6.49999C23.8337 6.35743 23.8057 6.21621 23.751 6.08455C23.6963 5.95289 23.6161 5.83339 23.5148 5.73299ZM6.9485 4.33332H19.0515L20.1348 5.41666H5.86517L6.9485 4.33332ZM4.33333 20.5833V7.58332H21.6667L21.6688 20.5833H4.33333Z" fill="#999999"/>
<path d="M15.1667 9.75H10.8333V13H7.58334L13 18.4167L18.4167 13H15.1667V9.75Z" fill="#999999"/>
</svg>
