<svg width="26" height="26" viewBox="0 0 26 26" fill="none" xmlns="http://www.w3.org/2000/svg">
<path d="M13 9.75C11.2385 9.75 9.75 11.2385 9.75 13C9.75 14.7615 11.2385 16.25 13 16.25C14.7615 16.25 16.25 14.7615 16.25 13C16.25 11.2385 14.7615 9.75 13 9.75Z" fill="#8696A0"/>
<path d="M21.6667 5.41666H18.8652L15.9326 2.48407C15.8322 2.38328 15.7128 2.30334 15.5813 2.24887C15.4499 2.19439 15.309 2.16645 15.1667 2.16666H10.8333C10.691 2.16645 10.5501 2.19439 10.4187 2.24887C10.2872 2.30334 10.1678 2.38328 10.0674 2.48407L7.13483 5.41666H4.33333C3.13841 5.41666 2.16666 6.38841 2.16666 7.58332V19.5C2.16666 20.6949 3.13841 21.6667 4.33333 21.6667H21.6667C22.8616 21.6667 23.8333 20.6949 23.8333 19.5V7.58332C23.8333 6.38841 22.8616 5.41666 21.6667 5.41666ZM13 18.4167C10.0642 18.4167 7.58333 15.9358 7.58333 13C7.58333 10.0642 10.0642 7.58332 13 7.58332C15.9358 7.58332 18.4167 10.0642 18.4167 13C18.4167 15.9358 15.9358 18.4167 13 18.4167Z" fill="#8696A0"/>
</svg>
